<svg width="9.409in" height="11.196in" viewBox="0 0 9.409 11.196" xmlns="http://www.w3.org/2000/svg" version="1.1" preserveAspectRatio="xMidYMid meet"><g id="svgGroup" stroke-linecap="round" fill-rule="evenodd" font-size="9pt" stroke="#000" stroke-width="0.25mm" fill="none" style="stroke:#000;stroke-width:0.25mm;fill:none"><path d="M 0.204 8.196 L 0.204 9.055 L 0 9.055 L 0 10.338 L 0.204 10.338 L 0.204 11.078 L 0.927 11.078 L 0.927 11.196 L 2.21 11.196 L 2.21 11.078 L 3.136 11.078 L 3.136 9.055 L 3.136 8.196 L 0.204 8.196 Z M 3.341 10.338 L 2.932 10.338 L 2.932 9.055 L 3.341 9.055" id="side1_outsideCutPath" stroke="#FF0000" stroke-width="0.001" style="stroke:#FF0000;stroke-width:0.001" vector-effect="non-scaling-stroke"/><path d="M 3.341 9.055 L 3.341 8.196 L 6.273 8.196 L 6.273 9.055 L 6.273 11.078 L 5.346 11.078 L 5.346 11.196 L 4.063 11.196 L 4.063 11.078 L 3.341 11.078 L 3.341 10.338 M 6.477 10.338 L 6.068 10.338 L 6.068 9.055 L 6.477 9.055" id="side3_outsideCutPath" stroke="#FF0000" stroke-width="0.001" style="stroke:#FF0000;stroke-width:0.001" vector-effect="non-scaling-stroke"/><path d="M 6.477 9.055 L 6.477 8.196 L 9.409 8.196 L 9.409 9.055 L 9.204 9.055 L 9.204 10.338 L 9.409 10.338 L 9.409 11.078 L 8.482 11.078 L 8.482 11.196 L 7.199 11.196 L 7.199 11.078 L 6.477 11.078 L 6.477 10.338" id="side5_outsideCutPath" stroke="#FF0000" stroke-width="0.001" style="stroke:#FF0000;stroke-width:0.001" vector-effect="non-scaling-stroke"/><path d="M 0.927 8.196 L 0.927 8.078 L 0.204 8.078 L 0.204 7.338 L 0 7.338 L 0 6.055 L 0.204 6.055 L 0.204 5.196 L 3.136 5.196 L 3.136 6.055 L 3.136 8.078 L 2.21 8.078 L 2.21 8.196 M 3.341 7.338 L 2.932 7.338 L 2.932 6.055 L 3.341 6.055" id="side0_outsideCutPath" stroke="#FF0000" stroke-width="0.001" style="stroke:#FF0000;stroke-width:0.001" vector-effect="non-scaling-stroke"/><path d="M 3.341 6.055 L 3.341 5.196 L 6.273 5.196 L 6.273 6.055 L 6.273 8.078 L 5.346 8.078 L 5.346 8.196 M 6.477 7.338 L 6.068 7.338 L 6.068 6.055 L 6.477 6.055 M 4.063 8.196 L 4.063 8.078 L 3.341 8.078 L 3.341 7.338" id="side2_outsideCutPath" stroke="#FF0000" stroke-width="0.001" style="stroke:#FF0000;stroke-width:0.001" vector-effect="non-scaling-stroke"/><path d="M 6.477 6.055 L 6.477 5.196 L 9.409 5.196 L 9.409 6.055 L 9.204 6.055 L 9.204 7.338 L 9.409 7.338 L 9.409 8.078 L 8.482 8.078 L 8.482 8.196 M 7.199 8.196 L 7.199 8.078 L 6.477 8.078 L 6.477 7.338" id="side4_outsideCutPath" stroke="#FF0000" stroke-width="0.001" style="stroke:#FF0000;stroke-width:0.001" vector-effect="non-scaling-stroke"/><path d="M 4.5 5.196 L 4.929 4.453 L 4.827 4.394 L 5.469 3.282 L 5.571 3.341 L 6 2.598 L 5.571 1.855 L 5.469 1.914 L 4.827 0.802 L 4.929 0.743 L 4.5 0 L 3.642 0 L 3.642 0.118 L 2.358 0.118 L 2.358 0 L 1.5 0 L 1.071 0.743 L 1.173 0.802 L 0.531 1.914 L 0.429 1.855 L 0 2.598 L 0.429 3.341 L 0.531 3.282 L 1.173 4.394 L 1.071 4.453 L 1.5 5.196 M 2.358 5.196 L 2.358 5.078 L 3.642 5.078 L 3.642 5.196" id="bottom_outsideCutPath" stroke="#FF0000" stroke-width="0.001" style="stroke:#FF0000;stroke-width:0.001" vector-effect="non-scaling-stroke"/></g></svg>