<svg width="11.21in" height="34.472in" viewBox="0 0 11.21 34.472" xmlns="http://www.w3.org/2000/svg" version="1.1" preserveAspectRatio="xMidYMid meet"><g id="svgGroup" stroke-linecap="round" fill-rule="evenodd" font-size="9pt" stroke="#000" stroke-width="0.25mm" fill="none" style="stroke:#000;stroke-width:0.25mm;fill:none"><path d="M 0.204 20.354 L 0.204 21.638 L 0 21.638 L 0 22.922 L 0.204 22.922 L 0.204 24.205 L 0 24.205 L 0 25.488 L 0.204 25.488 L 0.204 26.771 L 0 26.771 L 0 28.055 L 0.204 28.055 L 0.204 29.338 L 0 29.338 L 0 30.621 L 0.204 30.621 L 0.204 31.904 L 0 31.904 L 0 33.188 L 0.204 33.188 L 0.204 34.354 L 1.227 34.354 L 1.227 34.472 L 2.51 34.472 L 2.51 34.354 L 3.737 34.354 L 3.737 31.904 L 3.737 29.338 L 3.737 26.771 L 3.737 24.205 L 3.737 21.638 L 3.737 20.354 L 0.204 20.354 Z M 3.941 25.488 L 3.532 25.488 L 3.532 24.205 L 3.941 24.205 M 3.941 33.188 L 3.532 33.188 L 3.532 31.904 L 3.941 31.904 M 3.941 30.621 L 3.532 30.621 L 3.532 29.338 L 3.941 29.338 M 3.941 28.055 L 3.532 28.055 L 3.532 26.771 L 3.941 26.771 M 3.941 22.922 L 3.532 22.922 L 3.532 21.638 L 3.941 21.638" id="side1_outsideCutPath" stroke="#FF0000" stroke-width="0.001" style="stroke:#FF0000;stroke-width:0.001" vector-effect="non-scaling-stroke"/><path d="M 3.941 21.638 L 3.941 20.354 L 7.473 20.354 L 7.473 21.638 L 7.473 24.205 L 7.473 26.771 L 7.473 29.338 L 7.473 31.904 L 7.473 34.354 L 6.247 34.354 L 6.247 34.472 L 4.963 34.472 L 4.963 34.354 L 3.941 34.354 L 3.941 33.188 M 7.678 25.488 L 7.269 25.488 L 7.269 24.205 L 7.678 24.205 M 7.678 33.188 L 7.269 33.188 L 7.269 31.904 L 7.678 31.904 M 7.678 30.621 L 7.269 30.621 L 7.269 29.338 L 7.678 29.338 M 7.678 28.055 L 7.269 28.055 L 7.269 26.771 L 7.678 26.771 M 7.678 22.922 L 7.269 22.922 L 7.269 21.638 L 7.678 21.638 M 3.941 22.922 3.941 24.205 M 3.941 25.488 3.941 26.771 M 3.941 28.055 3.941 29.338 M 3.941 30.621 3.941 31.904" id="side3_outsideCutPath" stroke="#FF0000" stroke-width="0.001" style="stroke:#FF0000;stroke-width:0.001" vector-effect="non-scaling-stroke"/><path d="M 7.678 21.638 L 7.678 20.354 L 11.21 20.354 L 11.21 21.638 L 11.005 21.638 L 11.005 22.922 L 11.21 22.922 L 11.21 24.205 L 11.005 24.205 L 11.005 25.488 L 11.21 25.488 L 11.21 26.771 L 11.005 26.771 L 11.005 28.055 L 11.21 28.055 L 11.21 29.338 L 11.005 29.338 L 11.005 30.621 L 11.21 30.621 L 11.21 31.904 L 11.005 31.904 L 11.005 33.188 L 11.21 33.188 L 11.21 34.354 L 9.983 34.354 L 9.983 34.472 L 8.7 34.472 L 8.7 34.354 L 7.678 34.354 L 7.678 33.188 M 7.678 22.922 7.678 24.205 M 7.678 25.488 7.678 26.771 M 7.678 28.055 7.678 29.338 M 7.678 30.621 7.678 31.904" id="side5_outsideCutPath" stroke="#FF0000" stroke-width="0.001" style="stroke:#FF0000;stroke-width:0.001" vector-effect="non-scaling-stroke"/><path d="M 1.227 20.354 L 1.227 20.236 L 0.204 20.236 L 0.204 19.07 L 0 19.07 L 0 17.786 L 0.204 17.786 L 0.204 16.503 L 0 16.503 L 0 15.22 L 0.204 15.22 L 0.204 13.937 L 0 13.937 L 0 12.653 L 0.204 12.653 L 0.204 11.37 L 0 11.37 L 0 10.087 L 0.204 10.087 L 0.204 8.804 L 0 8.804 L 0 7.52 L 0.204 7.52 L 0.204 6.236 L 3.737 6.236 L 3.737 7.52 L 3.737 10.087 L 3.737 12.653 L 3.737 15.22 L 3.737 17.786 L 3.737 20.236 L 2.51 20.236 L 2.51 20.354 M 3.941 16.503 L 3.532 16.503 L 3.532 15.22 L 3.941 15.22 M 3.941 8.804 L 3.532 8.804 L 3.532 7.52 L 3.941 7.52 M 3.941 19.07 L 3.532 19.07 L 3.532 17.786 L 3.941 17.786 M 3.941 13.937 L 3.532 13.937 L 3.532 12.653 L 3.941 12.653 M 3.941 11.37 L 3.532 11.37 L 3.532 10.087 L 3.941 10.087" id="side0_outsideCutPath" stroke="#FF0000" stroke-width="0.001" style="stroke:#FF0000;stroke-width:0.001" vector-effect="non-scaling-stroke"/><path d="M 3.941 7.52 L 3.941 6.236 L 7.473 6.236 L 7.473 7.52 L 7.473 10.087 L 7.473 12.653 L 7.473 15.22 L 7.473 17.786 L 7.473 20.236 L 6.247 20.236 L 6.247 20.354 M 4.963 20.354 L 4.963 20.236 L 3.941 20.236 L 3.941 19.07 M 7.678 16.503 L 7.269 16.503 L 7.269 15.22 L 7.678 15.22 M 7.678 8.804 L 7.269 8.804 L 7.269 7.52 L 7.678 7.52 M 7.678 19.07 L 7.269 19.07 L 7.269 17.786 L 7.678 17.786 M 7.678 13.937 L 7.269 13.937 L 7.269 12.653 L 7.678 12.653 M 7.678 11.37 L 7.269 11.37 L 7.269 10.087 L 7.678 10.087 M 3.941 8.804 3.941 10.087 M 3.941 11.37 3.941 12.653 M 3.941 13.937 3.941 15.22 M 3.941 16.503 3.941 17.786" id="side2_outsideCutPath" stroke="#FF0000" stroke-width="0.001" style="stroke:#FF0000;stroke-width:0.001" vector-effect="non-scaling-stroke"/><path d="M 7.678 7.52 L 7.678 6.236 L 11.21 6.236 L 11.21 7.52 L 11.005 7.52 L 11.005 8.804 L 11.21 8.804 L 11.21 10.087 L 11.005 10.087 L 11.005 11.37 L 11.21 11.37 L 11.21 12.653 L 11.005 12.653 L 11.005 13.937 L 11.21 13.937 L 11.21 15.22 L 11.005 15.22 L 11.005 16.503 L 11.21 16.503 L 11.21 17.786 L 11.005 17.786 L 11.005 19.07 L 11.21 19.07 L 11.21 20.236 L 9.983 20.236 L 9.983 20.354 M 8.7 20.354 L 8.7 20.236 L 7.678 20.236 L 7.678 19.07 M 7.678 8.804 7.678 10.087 M 7.678 11.37 7.678 12.653 M 7.678 13.937 7.678 15.22 M 7.678 16.503 7.678 17.786" id="side4_outsideCutPath" stroke="#FF0000" stroke-width="0.001" style="stroke:#FF0000;stroke-width:0.001" vector-effect="non-scaling-stroke"/><path d="M 5.401 6.236 L 5.98 5.233 L 5.878 5.174 L 6.519 4.062 L 6.621 4.121 L 7.201 3.118 L 6.621 2.115 L 6.519 2.174 L 5.878 1.062 L 5.98 1.003 L 5.401 0 L 4.242 0 L 4.242 0.118 L 2.959 0.118 L 2.959 0 L 1.8 0 L 1.221 1.003 L 1.323 1.062 L 0.681 2.174 L 0.579 2.115 L 0 3.118 L 0.579 4.121 L 0.681 4.062 L 1.323 5.174 L 1.221 5.233 L 1.8 6.236 M 2.959 6.236 L 2.959 6.118 L 4.242 6.118 L 4.242 6.236" id="bottom_outsideCutPath" stroke="#FF0000" stroke-width="0.001" style="stroke:#FF0000;stroke-width:0.001" vector-effect="non-scaling-stroke"/></g></svg>